<svg t="1736569209959" class="icon" viewBox="0 0 1024 1024" version="1.1" xmlns="http://www.w3.org/2000/svg" p-id="16625" width="200" height="200"><path d="M828.074667 550.656l180.394666 82.602667v156.16l-0.682666 15.36a206.762667 206.762667 0 0 1-90.282667 154.197333l-13.312 8.277333-77.056 43.946667-83.712-45.226667a202.666667 202.666667 0 0 1-105.642667-163.498666l-0.512-14.762667V632.490667l190.805334-81.92z m-242.346667 366.08a42.666667 42.666667 0 0 1 7.68 84.650667l-7.68 0.682666H197.12a42.666667 42.666667 0 0 1-7.68-84.565333l7.68-0.768h388.522667zM826.88 643.925333l-104.362667 44.8 0.085334 98.986667c0 34.816 15.36 67.328 41.301333 89.344l10.24 7.68 9.898667 6.144 41.984 22.698667 35.84-20.48a122.026667 122.026667 0 0 0 55.893333-68.778667l3.157333-12.288 1.706667-12.544 0.512-11.776V687.786667L826.88 644.010667zM845.056 12.8A170.666667 170.666667 0 0 1 1015.210667 170.666667l0.512 12.8v246.954666a51.2 51.2 0 0 1-101.717334 8.277334l-0.682666-8.277334V183.466667a68.266667 68.266667 0 0 0-59.733334-67.754667l-8.533333-0.512H178.944a68.266667 68.266667 0 0 0-67.669333 59.733333l-0.597334 8.533334v485.034666a68.266667 68.266667 0 0 0 59.733334 67.754667l8.533333 0.512h333.141333a51.2 51.2 0 0 1 8.277334 101.717333l-8.277334 0.682667H178.944a170.666667 170.666667 0 0 1-170.154667-157.866667l-0.512-12.8V183.466667A170.666667 170.666667 0 0 1 166.229333 13.226667l12.8-0.426667h666.026667zM458.752 296.96l5.802667 5.802667 120.576 147.626666L739.84 313.173333a42.666667 42.666667 0 0 1 54.613333-1.706666l5.632 5.290666a42.666667 42.666667 0 0 1 1.706667 54.613334l-5.290667 5.632-187.733333 166.741333a42.666667 42.666667 0 0 1-55.893333 0.768l-5.546667-5.632L428.373333 393.301333 307.2 514.56a42.666667 42.666667 0 0 1-54.442667 4.864l-5.973333-4.864a42.666667 42.666667 0 0 1-4.864-54.442667l4.864-5.973333 154.709333-154.624a42.666667 42.666667 0 0 1 57.344-2.645333z" p-id="16626"></path></svg>