<svg t="1730263366708" class="icon" viewBox="0 0 1024 1024" version="1.1" xmlns="http://www.w3.org/2000/svg" p-id="45555" width="200" height="200"><path d="M871.744 0a64 64 0 0 1 64 64v768a64 64 0 0 1-64 64h-704v32l0.512 5.76a32 32 0 0 0 31.488 26.24h704l5.76 0.512a32 32 0 0 1-5.76 63.488h-704l-9.216-0.448A96 96 0 0 1 103.744 928V64a64 64 0 0 1 64-64h704z m-400.64 522.112c-29.568 23.424-67.584 42.624-113.664 57.216l17.28 37.248c47.616-17.664 87.936-39.552 121.344-65.664l-24.96-28.8z m112.128 0l-20.352 30.336c39.552 15.36 78.336 36.48 115.968 63.36l21.504-33.792a599.232 599.232 0 0 0-117.12-59.904zM505.664 256h-38.016v46.848h-82.176v178.944H351.296v38.4h352.896v-38.4h-32.64V302.848H589.76V256h-38.016v46.848h-46.08V256z m-38.016 170.88v54.912h-43.776V426.88h43.776z m84.096 0v54.912h-46.08V426.88h46.08z m81.408 0v54.912H589.76V426.88h43.392z m-165.504-87.168V390.4h-43.776v-50.688h43.776z m84.096 0V390.4h-46.08v-50.688h46.08z m81.408 0V390.4H589.76v-50.688h43.392z"  p-id="45556"></path></svg>