<svg t="1734615051139" class="icon" viewBox="0 0 1024 1024" version="1.1" xmlns="http://www.w3.org/2000/svg" p-id="6231" width="200" height="200"><path d="M470.2 98.2H78.8c-6.6 0-12 5.4-12 12V628c0 6.6 5.4 12 12 12h391.4c6.6 0 12-5.4 12-12V110.2c0-6.6-5.4-12-12-12zM470.2 703.9H78.8c-6.6 0-12 5.4-12 12v198.5c0 6.6 5.4 12 12 12h391.4c6.6 0 12-5.4 12-12V715.9c0-6.6-5.4-12-12-12zM945.7 384H554.3c-6.6 0-12 5.4-12 12v517.7c0 6.6 5.4 12 12 12h391.4c6.6 0 12-5.4 12-12V396c0-6.6-5.4-12-12-12zM945.7 97.9H554.3c-6.6 0-12 5.4-12 12v198.5c0 6.6 5.4 12 12 12h391.4c6.6 0 12-5.4 12-12V109.9c0-6.6-5.4-12-12-12z" p-id="6232"></path></svg>