<svg t="1737364336157" class="icon" viewBox="0 0 1024 1024" version="1.1" xmlns="http://www.w3.org/2000/svg" p-id="17840" width="200" height="200"><path d="M810.6496 0c115.8656 0 207.616 80.2304 213.0944 194.048L1024 204.8v614.4c0 115.8656-88.2688 199.5776-194.7648 204.544L819.2 1024H204.8C97.2288 1024 5.6832 935.7312 0.256 829.2352L0 819.2V204.8C0 97.2288 88.2688 5.6832 194.7648 0.256L204.8 0h605.8496z m-588.8 76.8c-82.0224 0-140.4416 55.2448-152.3712 135.3216l-1.2288 9.728v567.7056a152.9344 152.9344 0 0 0 144.5376 153.344l9.0624 0.256 575.744 1.8432a152.9344 152.9344 0 0 0 153.344-144.4864l0.256-9.1136V232.2944a152.9344 152.9344 0 0 0-144.5376-153.3952l-9.0624-0.256L221.8496 76.8z m196.7616 244.8384c30.5664-0.512 38.912 21.1968 41.216 36.352l0.6656 6.4512 6.0928 110.3872 2.7136-6.2464 3.3792-6.656c10.24-18.4832 33.28-49.2544 69.6832-37.4784 33.9456 10.9568 36.352 46.4384 34.2528 68.9152l-0.9728 7.7312-1.0752 6.0928-1.2288 5.376 4.2496-3.6864 5.0176-3.7888 6.5536-4.3008c15.6672-9.5232 40.704-18.944 63.6928-3.0208 23.6544 16.384 19.456 42.1376 13.2608 58.624l-2.7136 6.4512-2.5088 5.0176-2.3552 4.1984 1.1776-1.536c3.9936-4.5568 17.5104-15.4624 48.4352-2.304 21.5552 9.1136 23.1424 41.2672 20.48 67.5328l-1.536 11.5712a259.584 259.584 0 0 1-0.8192 5.2736l-1.792 9.1648-2.6112 11.3664-3.1744 16.896-2.56 12.032-5.2736 21.9648-4.5056 16.384-5.2224 17.152c-11.264 34.6112-27.2384 70.2976-48.2304 86.5792-47.2576 36.608-176.5376 35.0208-233.1648 12.4416-19.456-7.7824-46.592-30.208-74.0864-57.344l-16.4864-16.7936-16.2304-17.408-15.616-17.6128-14.6432-17.2544-13.3632-16.5376-11.7248-15.2064c-12.544-16.896-21.0432-30.208-22.9888-36.5568-7.9872-26.3168-2.4064-52.6336 37.376-49.6128 18.944 1.4336 44.032 16.5376 65.1264 32l12.0832 9.216 10.6496 8.6016 18.7904 16.5376-0.256-309.7088 0.512-4.9152c1.7408-13.3632 9.216-41.8304 39.7312-42.3424z m388.9664-135.4752a76.8 76.8 0 0 1 76.8 76.8v358.4a76.8 76.8 0 0 1-76.8 76.8h-54.0672c15.2064-84.2752 14.5408-134.9632-2.048-152.1152-18.944-19.6096-35.4304-24.6784-49.3568-15.2576 4.5056-28.0576-3.7888-49.1008-24.9344-63.0272-21.1456-13.9776-45.9776-15.5136-74.496-4.608 2.2016-30.4128-10.1888-51.5584-37.12-63.488-26.9824-11.8784-52.224-11.8784-75.776 0-0.768-31.3344-2.4576-52.8896-5.12-64.7168-3.9936-17.664-26.5216-55.7056-63.6416-55.0912-37.12 0.5632-67.5328 26.4704-75.264 74.24-2.3552 14.4384-3.584 38.912-3.84 73.472v21.9648c0.2048 38.5536 1.536 87.1936 3.84 145.92-37.9904-20.9408-64.6656-31.8976-80.0256-32.9216-48.3328-3.328-77.1072 33.1264-70.2464 85.2992 1.8944 14.336 6.3488 27.904 13.312 40.7552l5.7344 9.472-5.4784-0.256a76.8 76.8 0 0 1-69.4272-76.4416v-358.4a76.8 76.8 0 0 1 76.8-76.8h591.1552z" p-id="17841"></path></svg>