<svg t="1737375118288" class="icon" viewBox="0 0 1024 1024" version="1.1" xmlns="http://www.w3.org/2000/svg" p-id="39610" width="200" height="200"><path d="M864.711111 796.444444l-182.044444 0 0 45.488356 22.755556 0c12.583822 0 22.755556 10.194489 22.755556 22.755556 0 12.583822-10.171733 22.755556-22.755556 22.755556l-33.860267 0c-0.113778 0-0.159289 0.045511-0.273067 0.045511-0.045511 0-0.091022-0.045511-0.159289-0.045511L614.4 887.443911c-12.583822 0-22.755556-10.171733-22.755556-22.755556 0-12.561067 10.171733-22.755556 22.755556-22.755556l22.755556 0L637.155556 796.444444 159.288889 796.444444c-50.267022 0-91.022222-40.732444-91.022222-91.022222L68.266667 318.600533C68.266667 268.310756 109.021867 227.555556 159.288889 227.555556l477.866667 0L637.155556 182.021689l-22.755556 0c-12.583822 0-22.755556-10.171733-22.755556-22.755556s10.171733-22.755556 22.755556-22.755556l91.022222 0c12.583822 0 22.755556 10.171733 22.755556 22.755556s-10.171733 22.755556-22.755556 22.755556l-22.755556 0L682.666667 227.555556l182.044444 0c50.267022 0 91.022222 40.7552 91.022222 91.044978L955.733333 705.422222C955.733333 755.712 914.978133 796.444444 864.711111 796.444444zM637.155556 273.066667 159.288889 273.066667c-25.122133 0-45.511111 20.388978-45.511111 45.511111l0 386.844444c0 25.122133 20.388978 45.533867 45.511111 45.533867l477.866667 0L637.155556 273.066667zM910.222222 318.577778c0-25.122133-20.388978-45.511111-45.511111-45.511111l-182.044444 0 0 477.889422 182.044444 0c25.122133 0 45.511111-20.388978 45.511111-45.533867L910.222222 318.577778zM728.177778 318.555022l136.533333 0 0 386.844444-136.533333 0L728.177778 318.555022zM159.288889 318.555022l432.355556 0 0 386.844444L159.288889 705.399467 159.288889 318.555022z"  p-id="39611"></path></svg>