<svg t="1737364973573" class="icon" viewBox="0 0 1024 1024" version="1.1" xmlns="http://www.w3.org/2000/svg" p-id="20700" width="200" height="200"><path d="M659.968 382.464v74.24h36.864v184.832h74.24V382.464h-111.104z m74.24-111.104c-20.48 0-36.864 16.384-36.864 36.864s16.384 36.864 36.864 36.864 36.864-16.384 36.864-36.864-16.896-36.864-36.864-36.864z m0-111.104c81.408 0 156.672 25.6 184.832 35.84v596.48c-44.032-14.336-107.008-32.256-184.832-32.256-76.288 0-143.872 18.944-184.832 32.256V196.096c36.864-12.288 113.152-35.84 184.832-35.84z m-444.416 0c71.68 0 147.968 23.04 184.832 35.84v596.48c-40.96-13.824-109.056-32.256-184.832-32.256-77.824 0-140.8 17.92-184.832 32.256V196.096c28.672-10.24 103.936-35.84 184.832-35.84z m0-73.728c-119.296 0-236.032 48.64-236.032 48.64l-23.04 10.24V899.584h417.28c12.8 22.016 36.352 36.864 63.488 36.864s50.688-14.848 63.488-36.864h417.28V145.408l-23.04-10.24s-116.224-48.64-236.032-48.64c-108.032 0-202.752 36.352-222.208 44.032-17.92-7.68-113.152-44.032-221.184-44.032z" p-id="20701"></path></svg>