<svg t="1737380184042" class="icon" viewBox="0 0 1024 1024" version="1.1" xmlns="http://www.w3.org/2000/svg" p-id="52875" width="200" height="200"><path d="M895.168 465.424c-1.056-68.912-46.208-164.408-131.832-242.096-13.952-12.664-31.288-30.72-31.744-46.736-0.552-18.92 10.936-43.496 25.448-56.336 22.248-19.68 49.232-11.72 71.872 6.848 93.216 76.504 153.12 174.016 174.712 292.216 58.336 318.992-183.448 600.16-507.656 592.768-201.552-4.592-387.112-142.328-453.616-336.704-65.96-192.776-5.072-414.24 148.896-541.528 35.88-29.664 70.504-31 94.096-3.624 24.512 28.44 18.648 58.992-17.888 91.88-118.84 106.936-161.816 240.2-120.232 392.976 41.288 151.624 146.16 243.376 300.984 274.384 229.48 45.96 447.776-138.688 446.96-424.048z" p-id="52876"></path><path d="M436.152 276.648c0.016-60.6-0.536-121.2 0.184-181.8 0.6-51.816 32.272-86.496 77.432-86.784 44.768-0.272 78.272 34.664 78.632 85.912 0.856 123.832 0.832 247.664 0.032 371.488-0.344 51.36-33.456 86.832-77.776 87.128-45.648 0.312-77.928-36.232-78.384-90.192-0.528-61.92-0.12-123.84-0.12-185.752z" p-id="52877"></path></svg>