<svg t="1737441003826" class="icon" viewBox="0 0 1024 1024" version="1.1" xmlns="http://www.w3.org/2000/svg" p-id="4686" width="200" height="200"><path d="M352 426.666667a53.333333 53.333333 0 1 0 0 106.666666h234.666667a53.333333 53.333333 0 1 0 0-106.666666h-234.666667z"  p-id="4687"></path><path d="M167.381333 170.026667c-166.272 169.813333-166.272 445.098667 0 614.912a419.328 419.328 0 0 0 549.930667 45.482666l135.082667 137.941334a49.792 49.792 0 0 0 71.466666 0 52.394667 52.394667 0 0 0 0-73.002667l-132.096-134.912c143.701333-170.794667 136.277333-428.544-22.186666-590.421333a419.584 419.584 0 0 0-602.197334 0z m71.466667 541.952c-126.805333-129.536-126.805333-339.456 0-468.949334a320 320 0 0 1 459.221333 0c126.805333 129.493333 126.805333 339.456 0 468.906667a320 320 0 0 1-459.221333 0z" p-id="4688"></path></svg>