<svg t="1737378581316" class="icon" viewBox="0 0 1024 1024" version="1.1" xmlns="http://www.w3.org/2000/svg" p-id="10310" width="200" height="200"><path d="M817.733333 210.266667H215.6c-26.666667 0-48.133333-21.6-48.133333-48.133334v-24.133333c0-26.666667 21.6-48.133333 48.133333-48.133333h602.133333c26.666667 0 48.133333 21.6 48.133334 48.133333v24.133333c0.133333 26.533333-21.466667 48.133333-48.133334 48.133334zM195.866667 528.266667s263.6-211.2 266.266666-213.733334c12.266667-12 27.333333-19.2 42.933334-21.733333 1.466667-0.266667 3.066667-0.533333 4.533333-0.666667 2.4-0.266667 4.8-0.266667 7.2-0.266666 2.4 0 4.8 0 7.2 0.266666 1.466667 0.133333 3.066667 0.4 4.533333 0.666667 15.466667 2.533333 30.666667 9.866667 42.933334 21.733333 2.666667 2.533333 266.266667 213.733333 266.266666 213.733334 28.4 27.733333 26 56.266667-2.4 83.866666-28.4 27.733333-66.4 2.666667-94.933333-25.066666l-163.333333-129.2v426.8c0 26.666667-21.6 48.266667-48.133334 48.266666h-24c-26.666667 0-48.133333-21.6-48.133333-48.266666V457.866667l-163.333333 129.2c-28.4 27.733333-66.533333 52.8-94.933334 25.066666-28.666667-27.733333-31.066667-56.133333-2.666666-83.866666z" p-id="10311"></path></svg>