<svg t="1737363832595" class="icon" viewBox="0 0 1024 1024" version="1.1" xmlns="http://www.w3.org/2000/svg" p-id="7133" width="200" height="200"><path d="M122.368 165.888h778.24c-9.216 0-16.384-7.168-16.384-16.384v713.728c0-9.216 7.168-16.384 16.384-16.384h-778.24c9.216 0 16.384 7.168 16.384 16.384V150.016c0 8.192-6.656 15.872-16.384 15.872zM89.6 850.432a46.98 46.98 0 0 0 47.104 47.104h750.08a46.98 46.98 0 0 0 47.104-47.104V162.304a46.98 46.98 0 0 0-47.104-47.104h-750.08A46.98 46.98 0 0 0 89.6 162.304v688.128z m49.152-692.224V435.2h745.472V158.208H138.752z m609.792 206.336L645.632 255.488l25.088-26.624 77.824 82.432 77.824-82.432 25.088 26.624-102.912 109.056zM138.752 682.496h745.472v48.128H138.752z m0-228.864h745.472v50.176H138.752z m609.792 206.336L645.632 550.912l25.088-26.624 77.824 82.432 77.824-82.432 25.088 26.624z" p-id="7134"></path></svg>