<svg t="1737883823946" class="icon" viewBox="0 0 1024 1024" version="1.1" xmlns="http://www.w3.org/2000/svg" p-id="13436" width="200" height="200"><path d="M9.308 180.69h858.901v85.891h-858.901zM9.308 8.912h858.901v85.891h-858.901zM9.308 696.032h257.67v85.891h-257.67zM9.308 352.473h257.67v85.891h-257.67zM989.678 867.812l-121.466-121.466c-11.673-11.703-26.711-20.041-43.541-23.445 33.353-30.559 43.541-70.468 43.541-112.758 0-142.308-115.364-257.67-257.67-257.67s-257.67 115.364-257.67 257.67 115.364 257.67 257.67 257.67c42.289 0 82.199-10.189 117.407-28.242 6.671 16.059 17.556 29.248 31.282 38.553l108.976 111.157c33.54 33.54 87.925 33.54 121.466 0s33.54-87.925 0-121.466zM610.54 781.923c-94.871 0-171.778-76.908-171.778-171.778s76.908-171.778 171.778-171.778c94.871 0 171.778 76.908 171.778 171.778 0 94.87-76.908 171.778-171.778 171.778zM9.308 524.254h257.67v85.891h-257.67z" p-id="13437"></path></svg>