<svg t="1737380459161" class="icon" viewBox="0 0 1024 1024" version="1.1" xmlns="http://www.w3.org/2000/svg" p-id="55612" width="200" height="200"><path d="M896 243.882667V256h-256V0h12.117333c12.8 0 24.917333 5.12 33.962667 14.08l195.84 195.84a48.042667 48.042667 0 0 1 14.08 33.962667z m-272.042667 76.117333a48.128 48.128 0 0 1-47.957333-48.042667V0H175.957333A47.957333 47.957333 0 0 0 128 48.042667v927.914666c0 26.538667 21.504 48.042667 48.042667 48.042667h671.914666c26.538667 0 48.042667-21.504 48.042667-48.042667V320H623.957333zM374.528 801.024a10.837333 10.837333 0 0 1-15.36 0.512l-129.706667-121.685333a10.837333 10.837333 0 0 1 0-15.701334l129.706667-121.685333a10.837333 10.837333 0 0 1 15.36 0.512l39.168 41.813333a10.837333 10.837333 0 0 1-0.853333 15.445334l-81.493334 71.765333 81.578667 71.68a10.752 10.752 0 0 1 0.768 15.530667l-39.253333 41.813333zM477.013333 901.973333l-54.954666-15.957333a10.752 10.752 0 0 1-7.338667-13.397333l122.88-423.253334a10.837333 10.837333 0 0 1 13.397333-7.338666l54.869334 15.957333a10.752 10.752 0 0 1 7.424 13.397333l-122.88 423.253334a10.837333 10.837333 0 0 1-13.397334 7.338666z m321.536-222.122666l-129.706666 121.685333a10.752 10.752 0 0 1-15.274667-0.512l-39.168-41.813333a10.837333 10.837333 0 0 1 0.853333-15.445334l81.408-71.765333-81.493333-71.68a10.752 10.752 0 0 1-0.768-15.530667l39.253333-41.813333a10.837333 10.837333 0 0 1 15.189334-0.512l129.706666 121.685333a10.837333 10.837333 0 0 1 0 15.701334z"  p-id="55613"></path></svg>