<svg t="1737894613189" class="icon" viewBox="0 0 1024 1024" version="1.1" xmlns="http://www.w3.org/2000/svg" p-id="19979" width="200" height="200"><path d="M582.4 774.4H460.8L422.4 640h-192l-44.8 134.4H64L262.4 192h134.4l185.6 582.4zM396.8 544l-64-198.4c-6.4-12.8-6.4-32-6.4-51.2-6.4 12.8-6.4 32-12.8 44.8l-64 204.8h147.2zM627.2 384c19.2-12.8 44.8-19.2 76.8-25.6 32-6.4 57.6-12.8 83.2-12.8 115.2 0 172.8 57.6 172.8 172.8V768h-115.2v-57.6c-25.6 44.8-70.4 70.4-121.6 70.4-38.4 0-70.4-12.8-96-32-25.6-19.2-38.4-51.2-38.4-89.6 0-76.8 44.8-128 140.8-140.8l115.2-12.8c0-51.2-25.6-70.4-76.8-70.4-51.2 0-96 12.8-140.8 44.8V384zM768 582.4c-44.8 6.4-64 25.6-64 57.6 0 12.8 6.4 25.6 12.8 38.4 6.4 12.8 25.6 12.8 44.8 12.8 25.6 0 44.8-6.4 64-25.6 19.2-19.2 25.6-38.4 25.6-64V576l-83.2 6.4z"  p-id="19980"></path></svg>