<svg t="1737377604658" class="icon" viewBox="0 0 1024 1024" version="1.1" xmlns="http://www.w3.org/2000/svg" p-id="47706" width="200" height="200"><path d="M853.344 896h-640c-36.256 0-64-27.744-64-64v-10.656c0-19.2 8.544-36.256 21.344-49.056l298.656-260.256-298.656-260.256c-14.944-12.8-21.344-29.856-21.344-49.056v-10.656c0-36.256 27.744-64 64-64h640v85.344H256l285.856 251.744c12.8 12.8 21.344 29.856 21.344 46.944s-6.4 36.256-19.2 46.944l-4.256 4.256L256 810.752h597.344v85.344zM228.256 836.256z m258.144-339.2z" p-id="47707"></path></svg>