<svg t="1737372370851" class="icon" viewBox="0 0 1024 1024" version="1.1" xmlns="http://www.w3.org/2000/svg" p-id="35064" width="200" height="200"><path d="M682.666667 256a42.666667 42.666667 0 0 1 42.666666 42.666667v602.069333c0 20.949333-17.834667 37.930667-39.829333 37.930667H167.829333C145.834667 938.666667 128 921.685333 128 900.736V293.930667C128 272.981333 145.834667 256 167.829333 256H682.666667z m-42.666667 85.333333H213.333333v512h426.666667V341.333333z m256 106.666667a21.333333 21.333333 0 0 1 21.333333 21.333333v64a21.333333 21.333333 0 0 1-21.333333 21.333334h-64a21.333333 21.333333 0 0 1-21.333333-21.333334v-64a21.333333 21.333333 0 0 1 21.333333-21.333333h64z m0-192a21.333333 21.333333 0 0 1 21.333333 21.333333v64a21.333333 21.333333 0 0 1-21.333333 21.333334h-64a21.333333 21.333333 0 0 1-21.333333-21.333334v-64a21.333333 21.333333 0 0 1 21.333333-21.333333h64z m0-192a21.333333 21.333333 0 0 1 21.333333 21.333333v64a21.333333 21.333333 0 0 1-21.333333 21.333334h-64a21.333333 21.333333 0 0 1-21.333333-21.333334V85.333333a21.333333 21.333333 0 0 1 21.333333-21.333333h64z m-192 0a21.333333 21.333333 0 0 1 21.333333 21.333333v64a21.333333 21.333333 0 0 1-21.333333 21.333334h-64a21.333333 21.333333 0 0 1-21.333333-21.333334V85.333333a21.333333 21.333333 0 0 1 21.333333-21.333333h64z m-192 0a21.333333 21.333333 0 0 1 21.333333 21.333333v64a21.333333 21.333333 0 0 1-21.333333 21.333334h-64a21.333333 21.333333 0 0 1-21.333333-21.333334V85.333333a21.333333 21.333333 0 0 1 21.333333-21.333333h64z"  p-id="35065"></path></svg>