<svg t="1737368548131" class="icon" viewBox="0 0 1024 1024" version="1.1" xmlns="http://www.w3.org/2000/svg" p-id="27818" width="200" height="200"><path d="M817.2 812.8c26.666667 0 48.266667 21.6 48.266667 48.266667v24.133333c0 26.666667-21.6 48.266667-48.266667 48.266667H214.4c-26.666667 0-48.266667-21.6-48.266667-48.266667v-24.133333c0-26.666667 21.6-48.266667 48.266667-48.266667h602.8z m-622.666667-318.4c-28.4-27.733333-26-56.266667 2.4-84 28.4-27.733333 66.533333-2.666667 95.066667 25.066667l163.466667 129.333333V137.466667c0-26.666667 21.6-48.266667 48.266666-48.266667h24.133334c26.666667 0 48.266667 21.6 48.266666 48.266667v427.333333l163.466667-129.466667c28.4-27.733333 66.533333-52.933333 94.933333-25.066666 28.533333 27.733333 30.933333 56.266667 2.4 84 0 0-263.866667 211.466667-266.533333 214-12.266667 12-27.466667 19.2-42.933333 21.733333-1.466667 0.266667-2.933333 0.533333-4.533334 0.666667-2.4 0.266667-4.8 0.266667-7.2 0.266666-2.4 0-4.8 0-7.2-0.266666-1.466667-0.133333-3.066667-0.4-4.533333-0.666667-15.466667-2.533333-30.666667-9.866667-42.933333-21.733333-2.666667-2.4-266.533333-213.866667-266.533334-213.866667z" p-id="27819"></path></svg>