<svg t="1737365342771" class="icon" viewBox="0 0 1024 1024" version="1.1" xmlns="http://www.w3.org/2000/svg" p-id="24907" width="200" height="200"><path d="M512 0C229.6832 0 0 229.6832 0 512s229.6832 512 512 512 512-229.6832 512-512S794.3168 0 512 0z m0 950.3744c-241.664 0-438.3744-196.608-438.3744-438.3744C73.6256 270.2336 270.336 73.6256 512 73.6256 753.7664 73.6256 950.3744 270.336 950.3744 512c0 241.664-196.608 438.3744-438.3744 438.3744zM479.744 356.352c5.9392 4.9152 13.312 7.68 22.016 8.192 10.3424 1.024 24.6784-5.12 42.9056-18.5344 18.2272-13.4144 27.9552-24.064 28.9792-32.0512 1.024-7.9872-1.6384-20.3776-8.0896-37.1712-6.4512-16.6912-12.4928-27.4432-18.1248-32.0512-5.7344-4.608-12.3904-7.168-20.0704-7.68-14.9504-0.512-28.3648 6.3488-40.2432 20.48-11.8784 14.2336-19.456 25.6-22.8352 33.9968-3.3792 8.4992-5.0176 14.5408-5.0176 18.1248-0.512 6.2464 1.2288 14.336 5.4272 24.3712 4.096 10.0352 9.1136 17.5104 15.0528 22.3232z m144.7936 307.712l-8.8064-3.8912h-4.096c-4.7104 0-9.8304 1.2288-25.9072 9.1136l-25.8048 17.408c-7.0656 4.5056-14.848 8.192-23.3472 11.1616-8.9088 3.1744-18.2272 5.632-27.8528 7.3728-6.656 1.2288-11.8784 2.048-17.6128 1.7408-7.9872-0.9216-10.24-4.096-11.0592-5.2224-2.3552-3.3792-3.1744-9.6256-2.3552-17.7152 1.2288-11.8784 4.608-28.0576 10.0352-48.2304 5.5296-20.6848 10.9568-38.6048 16.0768-53.8624 5.2224-15.1552 11.264-31.0272 18.3296-47.616 6.9632-16.384 12.4928-28.3648 16.5888-35.4304 3.6864-6.5536 9.3184-13.824 16.5888-21.7088 6.9632-7.5776 23.1424-25.2928 13.824-42.3936-5.12-9.216-14.0288-14.7456-28.0576-15.5648-6.8608 0-14.4384 1.536-23.1424 4.5056-9.1136 3.1744-14.848 5.632-17.1008 6.8608-2.3552 1.2288-5.9392 3.584-21.8112 16.5888-15.7696 12.9024-20.2752 18.0224-22.528 22.528-2.2528 4.3008-4.096 10.4448-5.3248 26.112-0.512 5.8368-2.7648 17.5104-10.8544 40.2432L417.3824 609.28l-18.432 50.5856c-4.7104 17.3056-6.5536 32.256-5.5296 45.6704 1.024 13.1072 3.584 25.2928 7.7824 36.2496 4.608 12.1856 11.0592 22.1184 19.0464 29.4912 8.704 8.0896 19.5584 13.2096 31.4368 14.9504 3.2768 0.6144 6.8608 0.9216 10.752 0.9216 9.8304 0 21.1968-1.9456 35.0208-6.0416 16.9984-5.12 31.1296-10.1376 42.9056-15.5648 11.8784-5.3248 23.04-11.5712 33.1776-18.5344 9.6256-6.656 19.2512-13.5168 28.5696-20.5824 12.5952-9.4208 20.5824-19.1488 24.4736-29.696 3.2768-9.1136 6.9632-19.456 0.7168-28.5696l-2.7648-4.096z" p-id="24908"></path></svg>