<svg t="1736853386101" class="icon" viewBox="0 0 1024 1024" version="1.1" xmlns="http://www.w3.org/2000/svg" p-id="3614" width="200" height="200"><path d="M146.285714 1024c-80.457143 0-146.285714-65.828571-146.285714-146.285714V146.285714C0 65.828571 65.828571 0 146.285714 0h585.142857c80.457143 0 146.285714 65.828571 146.285715 146.285714v731.428572c0 80.457143-65.828571 146.285714-146.285715 146.285714zM1024 0l-31.451429 877.714286-41.691428 144.822857-31.451429-144.822857L950.857143 0z m-292.571429 950.857143c40.228571 0 73.142857-32.914286 73.142858-73.142857V146.285714c0-40.228571-32.914286-73.142857-73.142858-73.142857h-36.571428v54.857143C694.857143 178.468571 653.897143 219.428571 603.428571 219.428571h-329.142857C223.817143 219.428571 182.857143 178.468571 182.857143 128V73.142857H146.285714c-40.228571 0-73.142857 32.914286-73.142857 73.142857v731.428572c0 40.228571 32.914286 73.142857 73.142857 73.142857zM256 128c0 10.24 8.045714 18.285714 18.285714 18.285714h329.142857c10.24 0 18.285714-8.045714 18.285715-18.285714V73.142857h-365.714286zM219.428571 402.285714c-20.48 0-36.571429-16.091429-36.571428-36.571428s16.091429-36.571429 36.571428-36.571429h438.857143c20.48 0 36.571429 16.091429 36.571429 36.571429s-16.091429 36.571429-36.571429 36.571428z m0 146.285715c-20.48 0-36.571429-16.091429-36.571428-36.571429s16.091429-36.571429 36.571428-36.571429h438.857143c20.48 0 36.571429 16.091429 36.571429 36.571429s-16.091429 36.571429-36.571429 36.571429z m0 146.285714c-20.48 0-36.571429-16.091429-36.571428-36.571429s16.091429-36.571429 36.571428-36.571428h438.857143c20.48 0 36.571429 16.091429 36.571429 36.571428s-16.091429 36.571429-36.571429 36.571429z m438.857143 73.142857c20.48 0 36.571429 16.091429 36.571429 36.571429s-16.091429 36.571429-36.571429 36.571428H219.428571c-20.48 0-36.571429-16.091429-36.571428-36.571428s16.091429-36.571429 36.571428-36.571429z" p-id="3615"></path></svg>