<svg t="1730258569097" class="icon" viewBox="0 0 1024 1024" version="1.1" xmlns="http://www.w3.org/2000/svg" p-id="17778" width="200" height="200"><path d="M376.5 495.9H140c-42.5 0-76.9-34.4-76.9-76.9V275.5c0-70.8 57.4-128.2 128.2-128.2h185.2c42.5 0 76.9 34.4 76.9 76.9V419c0.1 42.5-34.4 76.9-76.9 76.9zM849.1 495.9H612.6c-42.5 0-76.9-34.4-76.9-76.9V224.2c0-42.5 34.4-76.9 76.9-76.9h185.2c70.8 0 128.2 57.4 128.2 128.2V419c0.1 42.5-34.4 76.9-76.9 76.9zM376.5 918H191.3c-70.8 0-128.2-57.4-128.2-128.2V646.3c0-42.5 34.4-76.9 76.9-76.9h236.5c42.5 0 76.9 34.4 76.9 76.9v194.8c0.1 42.5-34.4 76.9-76.9 76.9zM797.8 918H612.6c-42.5 0-76.9-34.4-76.9-76.9V646.3c0-42.5 34.4-76.9 76.9-76.9h236.5c42.5 0 76.9 34.4 76.9 76.9v143.5c0.1 70.8-57.4 128.2-128.2 128.2z"  p-id="17779"></path></svg>