<svg t="1730258447099" class="icon" viewBox="0 0 1024 1024" version="1.1" xmlns="http://www.w3.org/2000/svg" p-id="16612" width="200" height="200"><path d="M962.56 830.144c0-141.312-33.92-358.144-221.376-358.144-19.904 0-103.808 86.848-229.184 86.848-125.504 0-209.28-86.848-229.184-86.848-187.456 0-221.376 216.832-221.376 358.144 0 101.184 69.12 161.856 170.816 161.856h559.36c101.824 0 170.944-60.672 170.944-161.856z m-204.8-558.144c0-132.48-110.08-240-245.76-240S266.24 139.52 266.24 272s110.08 240 245.76 240 245.76-107.52 245.76-240z" p-id="16613"></path></svg>