<svg t="1730258317236" class="icon" viewBox="0 0 1024 1024" version="1.1" xmlns="http://www.w3.org/2000/svg" p-id="14765" width="200" height="200"><path d="M774.4 956.8c-121.6 0-217.6-99.2-217.6-217.6 0-121.6 99.2-217.6 217.6-217.6 121.6 0 217.6 99.2 217.6 217.6 0 121.6-99.2 217.6-217.6 217.6z m105.6-252.8H800v-73.6c0-19.2-12.8-35.2-35.2-35.2-19.2 0-32 16-32 35.2V704h-70.4c-19.2 0-35.2 16-35.2 35.2 0 19.2 16 28.8 35.2 28.8H736v76.8c0 19.2 12.8 35.2 32 35.2s35.2-16 35.2-35.2V768h80v3.2c19.2 0 35.2-12.8 35.2-32-3.2-19.2-19.2-35.2-38.4-35.2z m-262.4-265.6s-12.8 57.6-35.2 73.6c-22.4 19.2-16 44.8-35.2 70.4-64 83.2-64 156.8-48 227.2 9.6 48 41.6 115.2 144 163.2 0 0-83.2 19.2-227.2 19.2-112 0-345.6-25.6-368-44.8-12.8-9.6-22.4-67.2-9.6-150.4 12.8-96 137.6-83.2 204.8-128 54.4-35.2 54.4-57.6 51.2-99.2-3.2-25.6-25.6-41.6-44.8-57.6-19.2-16-35.2-73.6-35.2-73.6s-22.4-3.2-35.2-44.8C163.2 348.8 192 320 192 320s-6.4-128 48-201.6C288 44.8 358.4 32 416 32c73.6 0 137.6 38.4 166.4 73.6C649.6 185.6 640 320 640 320s22.4 16 16 57.6c-3.2 54.4-38.4 60.8-38.4 60.8z" p-id="14766"></path></svg>