<svg t="1735628638574" class="icon" viewBox="0 0 1024 1024" version="1.1" xmlns="http://www.w3.org/2000/svg" p-id="16292" width="256" height="256"><path d="M256 81.46944v0.27648c23.04 2.49856 40.96 21.59616 40.96 44.78976 0 23.1936-17.92 42.2912-40.96 44.78976v0.27648h517.12c-25.4464 0-46.08-20.1728-46.08-45.056 0-24.90368 20.6336-45.07648 46.08-45.07648 1.7408 0 3.44064 0.1024 5.12 0.27648v-0.27648h102.4c77.86496 0 143.36 63.85664 143.36 140.20608v610.9184C1024 908.94336 958.50496 972.8 880.64 972.8H143.36C65.49504 972.8 0 908.94336 0 832.59392v-610.9184C0 145.32608 65.49504 81.46944 143.36 81.46944h112.64zM81.92 672.34816v128.77824a81.92 81.92 0 0 0 79.27808 81.87904L460.8 892.68224V672.34816H81.92z m471.04 0v220.33408h307.2a81.92 81.92 0 0 0 81.92-81.92V672.34816H552.96zM81.92 253.5424v328.68352h860.16V253.52192a81.92 81.92 0 0 0-81.92-81.92H163.84a81.92 81.92 0 0 0-81.92 81.92z" fill="#000000" p-id="16293"></path><path d="M296.96 226.68288m45.06624 0l339.94752 0q45.06624 0 45.06624 45.06624l0 0q0 45.06624-45.06624 45.06624l-339.94752 0q-45.06624 0-45.06624-45.06624l0 0q0-45.06624 45.06624-45.06624Z" fill="#000000" p-id="16294"></path><path d="M465.92 435.98848V107.52a46.08 46.08 0 0 1 92.16 0v328.46848a46.08 46.08 0 1 1-92.16 0z"  p-id="16295"></path></svg>