<svg t="1735628594614" class="icon" viewBox="0 0 1024 1024" version="1.1" xmlns="http://www.w3.org/2000/svg" p-id="15174" width="256" height="256"><path d="M768 952.77056l0-0.27648c-23.04-2.49856-40.96-21.59616-40.96-44.78976 0-23.1936 17.92-42.2912 40.96-44.78976l0-0.27648-517.12 0c25.4464 0 46.08 20.1728 46.08 45.056 0 24.90368-20.6336 45.07648-46.08 45.07648-1.7408 0-3.44064-0.1024-5.12-0.27648l0 0.27648-102.4 0c-77.86496 0-143.36-63.85664-143.36-140.20608l0-610.9184C0 125.29664 65.49504 61.44 143.36 61.44L880.64 61.44C958.50496 61.44 1024 125.29664 1024 201.64608l0 610.9184C1024 888.91392 958.50496 952.77056 880.64 952.77056l-112.64 0zM942.08 361.89184l0-128.77824a81.92 81.92 0 0 0-79.27808-81.87904L563.2 141.55776V361.89184H942.08z m-471.04 0l0-220.33408-307.2 0a81.92 81.92 0 0 0-81.92 81.92V361.89184H471.04zM942.08 780.6976l0-328.68352-860.16 0L81.92 780.71808a81.92 81.92 0 0 0 81.92 81.92L860.16 862.63808a81.92 81.92 0 0 0 81.92-81.92z" fill="#000000" p-id="15175"></path><path d="M727.04 807.55712m-45.06624 0l-339.94752 0q-45.06624 0-45.06624-45.06624l0 0q0-45.06624 45.06624-45.06624l339.94752 0q45.06624 0 45.06624 45.06624l0 0q0 45.06624-45.06624 45.06624Z" fill="#000000" p-id="15176"></path><path d="M558.08 598.25152L558.08 926.72a46.08 46.08 0 0 1-92.16 0l0-328.46848a46.08 46.08 0 1 1 92.16 0z"  p-id="15177"></path></svg>