<svg t="1734935995357" class="icon" viewBox="0 0 1027 1024" version="1.1" xmlns="http://www.w3.org/2000/svg" p-id="3203" width="200" height="200"><path d="M963.086652 225.820142 62.417562 225.820142c-34.472116 0-62.417585 27.945469-62.417585 62.417585l0 436.632475c0 34.474163 27.945469 62.417585 62.417585 62.417585L963.086652 787.287787c34.473139 0 62.415538-27.944446 62.415538-62.417585L1025.50219 288.237727C1025.50219 253.764588 997.557745 225.820142 963.086652 225.820142zM164.891444 492.5316c-4.906753-0.209778-9.274224-2.0241-13.111622-5.436826-3.837398-3.837398-5.756097-8.099469-5.756097-12.791327 0.209778-5.116531 2.343371-9.91379 6.395664-14.390755 27.28646-30.908964 45.833885-65.556065 55.642275-103.930047 1.918699-6.180769 5.116531-10.338463 9.593496-12.472056 4.047176-2.343371 8.739035-2.87856 14.07046-1.599428 4.686742 1.708921 8.314363 4.586458 10.872628 8.634658 4.476965 10.447956-2.667759 34.326806-21.425985 71.631434 0.209778 0.214894 0.320295 0.429789 0.320295 0.639566l0 203.382107c-0.214894 5.965875-2.028193 10.872628-5.436826 14.710027-3.412726 3.40761-7.78429 5.221932-13.111622 5.436826-5.331425-0.214894-9.702989-1.918699-13.111622-5.116531-3.412726-4.052293-5.116531-9.063423-5.116531-15.030321L184.715955 478.780411C176.828311 487.73434 170.217753 492.321822 164.891444 492.5316zM363.476292 627.480104c-0.214894 5.965875-2.028193 10.872628-5.436826 14.710027-3.412726 3.40761-7.78429 5.221932-13.111622 5.436826-5.331425-0.214894-9.702989-1.918699-13.111622-5.116531-3.412726-4.052293-5.116531-9.063423-5.116531-15.030321l0-76.428693c-8.314363 10.447956-16.309454 19.61678-23.984251 27.501354-28.995381 28.350698-49.036833 41.571814-60.119239 39.653115-4.691859-1.708921-8.423857-4.586458-11.192923-8.634658-2.558265-5.116531-3.197832-9.702989-1.918699-13.751189 1.279133-5.116531 4.582365-9.274224 9.91379-12.472056 27.926026-18.332531 50.310849-39.653115 67.154469-63.956637l-55.002708 0c-5.756097 0-10.233062-1.703805-13.430894-5.116531-3.412726-3.622504-5.116531-8.099469-5.116531-13.430894 0-5.326309 1.703805-9.698896 5.116531-13.111622 3.197832-3.40761 7.674796-5.116531 13.430894-5.116531l75.149561 0 0-15.030321-49.566906 0c-7.465019-0.209778-13.221116-2.982938-17.268292-8.314363-5.116531-6.605442-7.569396-13.536294-7.355525-20.786419l0-60.758806c0-6.605442 2.343371-12.472056 7.03523-17.588587 5.116531-4.901637 10.978029-7.355525 17.588587-7.355525l18.86772 0 112.563682 0c8.524141-0.209778 15.669888 2.348488 21.425985 7.674796 4.901637 4.476965 7.459902 10.233062 7.674796 17.268292l0 60.758806c-0.214894 7.674796-3.307326 14.500249-9.274224 20.466124-5.970992 5.756097-12.58155 8.634658-19.826558 8.634658l-45.089941 0 0 15.030321 76.108399 0c5.541203 0 9.91379 1.599428 13.111622 4.797259 3.40761 3.62762 5.116531 8.104585 5.116531 13.430894 0 5.331425-1.708921 9.702989-5.116531 13.111622-3.412726 3.62762-7.78429 5.436826-13.111622 5.436826l-57.560974 0c16.838503 23.87885 39.97341 45.409213 69.393463 64.596204 5.326309 3.62762 8.419763 7.995091 9.274224 13.111622 0.424672 5.116531-0.74906 9.698896-3.518127 13.751189-3.412726 4.26207-7.355525 6.715959-11.83249 7.355525-5.116531 0.849344-10.233062-0.429789-15.349593-3.837398-25.797549-17.907858-47.967478-38.373982-66.514903-61.398372L363.474245 627.480104zM398.972737 390.520251c-1.708921-1.488911-3.307326-2.238994-4.797259-2.238994l-98.17395 0c-1.918699 0-3.518127 0.639566-4.797259 1.918699-1.494027 1.494027-2.133593 3.197832-1.918699 5.116531l0 30.05962c0 1.494027 0.639566 2.988054 1.918699 4.476965 1.279133 1.494027 2.87856 2.238994 4.797259 2.238994l98.17395 0c1.918699 0 3.518127-0.744967 4.797259-2.238994 1.064238-1.488911 1.703805-2.982938 1.918699-4.476965l0-30.05962C400.891436 393.613706 400.25187 392.014278 398.972737 390.520251zM608.750508 524.509918c-4.692882 3.412726-9.702989 5.01113-15.030321 4.797259-4.053316-0.639566-7.995091-3.197832-11.83249-7.674796-3.413749-4.686742-5.012154-9.378601-4.797259-14.07046 0.849344-5.756097 7.779174-13.536294 20.786419-23.344684 26.222221-22.169929 48.927339-49.246611 68.11433-81.224929l-62.677505 0c-5.756097 0-10.233062-1.703805-13.430894-5.116531-3.413749-3.622504-5.116531-8.099469-5.116531-13.430894 0-5.326309 1.702782-9.698896 5.116531-13.111622 3.197832-3.40761 7.674796-5.116531 13.430894-5.116531l79.626525 0c7.03523-17.692964 12.791327-27.501354 17.268292-29.420053s9.377578-1.809205 14.710027 0.320295c4.900613 1.918699 8.41874 5.116531 10.553357 9.593496 2.128477 4.691859 1.599428 11.192923-1.599428 19.507286l148.060127 0c5.54018 0 9.91379 1.599428 13.111622 4.797259 3.40761 3.62762 5.116531 8.104585 5.116531 13.430894 0 5.331425-1.708921 9.702989-5.116531 13.111622-3.413749 3.62762-7.78429 5.436826-13.111622 5.436826l-165.008124 0c-0.855484 1.708921-1.708921 3.307326-2.558265 4.797259-9.169847 17.698081-22.494317 38.054711-39.97341 61.0791 0.209778 0.214894 0.320295 0.639566 0.320295 1.279133l0 157.333328c0 6.180769-1.918699 11.192923-5.756097 15.030321-3.197832 3.622504-7.674796 5.541203-13.430894 5.756097-5.54632-0.214894-10.023284-1.918699-13.430894-5.116531-3.62762-4.052293-5.436826-9.274224-5.436826-15.669888L626.658366 509.479597C620.47248 515.025916 614.506605 520.032954 608.750508 524.509918zM691.574865 556.488237c-5.756097 0-10.233062-1.703805-13.430894-5.116531-3.413749-3.622504-5.116531-8.099469-5.116531-13.430894 0-5.326309 1.702782-9.698896 5.116531-13.111622 3.197832-3.40761 7.674796-5.116531 13.430894-5.116531l57.881268 0c-4.906753-4.26207-7.78429-9.05933-8.634658-14.390755-1.069355-7.245008 2.342348-13.855566 10.233062-19.826558l55.323003-24.943089c0.423649 0 0.639566-0.639566 0.639566-1.918699-0.215918-0.849344-2.348488-1.279133-6.395664-1.279133l-82.184791 0c-6.395664-0.209778-11.302417-2.0241-14.710027-5.436826-3.197832-3.622504-4.906753-7.780197-5.116531-12.472056 0.423649-5.541203 2.238994-9.698896 5.436826-12.472056 3.621481-3.40761 8.41874-5.116531 14.390755-5.116531l120.878045 0c15.559371 0 26.326599 3.307326 32.298614 9.91379 4.686742 5.970992 6.28617 13.221116 4.797259 21.745257-1.918699 7.250124-7.144724 13.111622-15.669888 17.588587l-63.956637 33.897018c-1.49505 0.854461-2.348488 1.388627-2.558265 1.599428-0.215918 0.639566-0.215918 1.069355 0 1.279133 4.476965 3.197832 8.738012 7.144724 12.791327 11.83249l66.195631 0c5.54018 0 9.91379 1.599428 13.111622 4.797259 3.40761 3.62762 5.116531 8.104585 5.116531 13.430894 0 5.331425-1.708921 9.702989-5.116531 13.111622-3.413749 3.62762-7.78429 5.436826-13.111622 5.436826l-44.13008 0c5.326309 16.418948 6.076392 32.617885 2.238994 48.607044-4.692882 13.001105-12.261255 24.088628-22.705118 33.257451-7.890714 6.820336-18.86772 10.657734-32.93818 11.512195-16.628726 0-34.646078-2.988054-54.04387-8.953929-7.03523-1.069355-12.261255-3.837398-15.669888-8.314363-2.988054-4.691859-4.053316-10.023284-3.197832-15.989159 0.849344-5.756097 3.302209-10.023284 7.355525-12.791327 4.686742-2.77316 10.553357-3.731998 17.588587-2.87856 14.919804 5.116531 27.285436 7.995091 37.09485 8.634658 10.872628 0.209778 18.228153-1.708921 22.065552-5.756097 4.261047-4.476965 7.139607-9.702989 8.634658-15.669888 1.279133-11.512195-1.069355-22.065552-7.03523-31.659047L691.574865 556.488237z"  p-id="3204"></path></svg>