<svg t="1737432904194" class="icon" viewBox="0 0 1024 1024" version="1.1" xmlns="http://www.w3.org/2000/svg" p-id="9996" width="200" height="200"><path d="M643.605 315.023l161.72-167.466a8 8 0 0 1 11.311-0.197l63.302 61.13-164.995 170.857h65.19a8 8 0 0 1 8 8v72h-224v-0.271h-0.528v-216a8 8 0 0 1 8-8h72v79.947z m155.644 484.56V662.905a8 8 0 0 1 8-8h72v224h-0.574v0.678h-216a8 8 0 0 1-8-8v-72h144.574z m-418.013-90.654l-161.72 167.465a8 8 0 0 1-11.311 0.198l-63.302-61.13 164.995-170.857h-65.19a8 8 0 0 1-8-8v-72h224v0.27h0.528v216a8 8 0 0 1-8 8h-72V708.93z m-157.18-486.38v136.528a8 8 0 0 1-8 8h-72v-224h0.27v-0.528h216a8 8 0 0 1 8 8v72h-144.27z" p-id="9997"></path></svg>