<svg t="1737432387299" class="icon" viewBox="0 0 1024 1024" version="1.1" xmlns="http://www.w3.org/2000/svg" p-id="3224" width="200" height="200"><path d="M651.12 377.852c-1.4-1.2-3.208-1.9-5.108-1.9H591.32c-2.4 0-4.612 1.1-6.112 2.9l-73.2 87.804-73.096-87.804a8.08 8.08 0 0 0-6.092-2.9H378.012c-1.9 0-3.696 0.7-5.096 1.9-3.4 2.8-3.9 7.904-1 11.304l102.296 122.8-102.388 122.896c-2.8 3.4-2.4 8.404 1 11.304 1.4 1.2 3.192 1.9 5.092 1.9h54.704c2.4 0 4.592-1.1 6.092-2.9l73.112-87.804 73.092 87.804c1.5 1.8 3.796 2.9 6.096 2.9h55c1.9 0 3.708-0.7 5.108-1.9 3.4-2.8 3.9-7.904 1-11.304l-102.296-122.9 102.388-122.896c2.8-3.4 2.308-8.404-1.092-11.204zM774 646v228c0 16.6 13.4 30 30 30h144c3.3 0 6-2.7 6-6v-60c0-3.3-2.7-6-6-6h-102v-186c0-3.3-2.7-6-6-6h-60c-3.3 0-6 2.7-6 6zM774 378v-228c0-16.6 13.4-30 30-30h144c3.3 0 6 2.7 6 6v60c0 3.3-2.7 6-6 6h-102v186c0 3.3-2.7 6-6 6h-60c-3.3 0-6-2.7-6-6zM70 898c0 3.296 2.704 6 6 6h144a29.96 29.96 0 0 0 30-30v-228c0-3.296-2.704-6-6-6H184c-3.296 0-6 2.704-6 6V832H76c-3.296 0-6 2.704-6 6v60zM70 126c0-3.296 2.704-6 6-6h144a29.96 29.96 0 0 1 30 30v228c0 3.296-2.704 6-6 6H184c-3.296 0-6-2.704-6-6V192H76c-3.296 0-6-2.704-6-6v-60z" fill="#000000" p-id="3225"></path><path d="M285.668 464H55.488c-3.52 0-6.396 3.6-6.396 8v80c0 4.4 2.88 8 6.396 8h230.18c3.52 0 6.396-3.6 6.396-8v-80c0-4.4-2.88-8-6.396-8zM968.8 464h-230.46c-3.52 0-6.4 3.6-6.4 8v80c0 4.4 2.88 8 6.4 8H968.8c3.52 0 6.4-3.6 6.4-8v-80c0-4.4-2.88-8-6.4-8z" p-id="3226"></path></svg>