<svg t="1737432456790" class="icon" viewBox="0 0 1024 1024" version="1.1" xmlns="http://www.w3.org/2000/svg" p-id="5674" width="200" height="200"><path d="M819.8 512l102.4-122.9c2.8-3.4 2.4-8.4-1-11.3-1.4-1.2-3.2-1.9-5.1-1.9H861.4c-2.4 0-4.6 1.1-6.1 2.9L782 466.7l-73.1-87.8A8.092 8.092 0 0 0 702.8 376H648a7.84 7.84 0 0 0-5.1 1.9c-3.4 2.8-3.9 7.9-1 11.3L744.2 512l-102.4 122.9c-2.8 3.4-2.4 8.4 1 11.3 1.4 1.2 3.2 1.9 5.1 1.9h54.7c2.4 0 4.6-1.1 6.1-2.9l73.1-87.8 73.1 87.8c1.5 1.8 3.8 2.9 6.1 2.9H916a7.84 7.84 0 0 0 5.1-1.9c3.4-2.8 3.9-7.9 1-11.3L819.8 512zM536 464H120c-4.4 0-8 3.6-8 8v80c0 4.4 3.6 8 8 8h416c4.4 0 8-3.6 8-8v-80c0-4.4-3.6-8-8-8z m-84 204H392c-3.3 0-6 2.7-6 6V840H136c-3.3 0-6 2.7-6 6v60c0 3.3 2.7 6 6 6h292c16.6 0 30-13.4 30-30v-208c0-3.3-2.7-6-6-6zM136 184h250v166c0 3.3 2.7 6 6 6h60c3.3 0 6-2.7 6-6v-208c0-16.6-13.4-30-30-30H136c-3.3 0-6 2.7-6 6v60c0 3.3 2.7 6 6 6z"  fill-opacity=".85" p-id="5675"></path></svg>