<svg t="1737432499465" class="icon" viewBox="0 0 1024 1024" version="1.1" xmlns="http://www.w3.org/2000/svg" p-id="6658" width="200" height="200"><path d="M216.264 512l-102.4-122.9c-2.8-3.4-2.4-8.4 1-11.3 1.4-1.2 3.2-1.9 5.1-1.9h54.7c2.4 0 4.6 1.1 6.1 2.9l73.3 87.9 73.1-87.8c1.5-1.8 3.8-2.9 6.1-2.9h54.8c1.9 0 3.7 0.7 5.1 1.9 3.4 2.8 3.9 7.9 1 11.3L291.864 512l102.4 122.9c2.8 3.4 2.4 8.4-1 11.3-1.4 1.2-3.2 1.9-5.1 1.9H333.464c-2.4 0-4.6-1.1-6.1-2.9l-73.1-87.8L181.16 645.2c-1.5 1.8-3.8 2.9-6.1 2.9h-55a7.84 7.84 0 0 1-5.1-1.9 7.964 7.964 0 0 1-1-11.3L216.264 512z m283.8-48h416c4.4 0 8 3.6 8 8v80c0 4.4-3.6 8-8 8h-416c-4.4 0-8-3.6-8-8v-80c0-4.4 3.6-8 8-8z m84 204h60c3.3 0 6 2.7 6 6V840h250c3.3 0 6 2.7 6 6v60c0 3.3-2.7 6-6 6h-292a29.96 29.96 0 0 1-30-30v-208c0-3.3 2.7-6 6-6z m316-484h-250v166c0 3.3-2.7 6-6 6h-60c-3.3 0-6-2.7-6-6v-208c0-16.6 13.4-30 30-30h292c3.3 0 6 2.7 6 6v60c0 3.3-2.7 6-6 6z" fill-opacity=".85" p-id="6659"></path></svg>