<svg t="1735302532842" class="icon" viewBox="0 0 1024 1024" version="1.1" xmlns="http://www.w3.org/2000/svg" p-id="6318" width="200" height="200"><path d="M512 682.666667c93.866667 0 170.666667-76.8 170.666667-170.666667s-76.8-170.666667-170.666667-170.666667-170.666667 76.8-170.666667 170.666667 76.8 170.666667 170.666667 170.666667z m0-256c46.933333 0 85.333333 38.4 85.333333 85.333333s-38.4 85.333333-85.333333 85.333333-85.333333-38.4-85.333333-85.333333 38.4-85.333333 85.333333-85.333333z" fill="#cdcdcd" p-id="6319"></path><path d="M938.666667 298.666667V213.333333h-128V85.333333H213.333333v128H85.333333v85.333334h128v85.333333H85.333333v85.333333h128v85.333334H85.333333v85.333333h128v85.333333H85.333333v85.333334h128v128h597.333334v-128h128v-85.333334h-128v-85.333333h128v-85.333333h-128v-85.333334h128V384h-128V298.666667h128z m-213.333334 554.666666H298.666667V170.666667h426.666666v682.666666z" p-id="6320"></path></svg>