<svg t="1736937346568" class="icon" viewBox="0 0 1024 1024" version="1.1" xmlns="http://www.w3.org/2000/svg" p-id="4484" width="256" height="256"><path d="M405.08 554.482c22.9-23.461 22.9-61.503 0-84.971l-116.952-128.098c-22.906-23.46-60.05-23.46-82.962 0-22.903 23.46399999-22.903 61.503 1e-8 84.967l75.57499999 85.616-75.575 85.616c-22.903 23.46699999-22.903 61.50899999 0 84.972 22.912 23.465 60.051 23.465 82.962 0L405.08 554.477l0 0.005z" fill="" p-id="4485"></path><path d="M318.555 166.968L694.493 511.996l-375.938 345.027c-22.907 23.467-22.907 61.51 0 84.972 22.90400001 23.465 60.04500001 23.465 82.959 0L818.833 554.482c22.906-23.456 22.906-61.498 0-84.971L401.509 82c-22.909-23.458-60.05-23.458-82.954 0-22.911 23.464-22.91099999 61.504 0 84.968z"  p-id="4486"></path></svg>