<svg t="1733986247030" class="icon" viewBox="0 0 1024 1024" version="1.1" xmlns="http://www.w3.org/2000/svg" p-id="11884" width="200" height="200"><path d="M854.107839 96.210081a14364.584753 14364.584753 0 0 0-204.8-3.430171 671.537363 671.537363 0 0 0-4.780198-43.88965C640.849507 24.796413 617.458224 4.463354 594.535318 3.985794a4319.383534 4319.383534 0 0 0-165.075228 0C406.532592 4.463354 383.150493 24.796413 379.467767 48.89026a677.906368 677.906368 0 0 0-4.775606 43.88965c-68.263605 0.656646-136.527211 1.800036-204.795408 3.430171C144.485022 96.931013 118.705937 115.459444 118.026332 137.275695 116.680897 181.142386 130.199534 225.004484 158.582242 268.871175 406.38565 220.412556 635.982063 229.596413 865.42235 268.871175c28.391892-43.866691 41.901345-87.728789 40.551318-131.59548-0.684197-21.811659-26.458691-40.344682-51.865829-41.065614zM158.582242 340.652197c-50.823462 200.708592-53.982709 401.426368-9.468556 602.144144 4.973058 21.811659 28.653632 43.811587 51.796951 48.187695 207.399031 38.145148 414.798063 38.145148 622.192502 0 23.143318-4.376108 46.814709-26.376036 51.792359-48.187695 44.509561-200.717776 41.354906-401.435552-9.468556-602.144144-235.625614-49.225471-471.232861-49.225471-706.8447 0z m179.769399 501.626834c-30.60061-1.377578-61.20122-3.122511-91.801829-5.225614a2059.865543 2059.865543 0 0 1-0.358171-346.557417 4001.76904 4001.76904 0 0 1 91.925812-5.09704 3335.28739 3335.28739 0 0 0 0.234188 356.880071z m206.549525 3.765382a3921.782242 3921.782242 0 0 1-91.80183-0.303068 10205.771767 10205.771767 0 0 1-0.082654-363.712861 3957.750816 3957.750816 0 0 1 91.925811-0.298475 18213.424215 18213.424215 0 0 1-0.041327 364.314404z m215.728789-7.870565c-30.60061 1.974529-61.192036 3.57252-91.792646 4.821524a3722.272143 3722.272143 0 0 0 0.211229-358.294385c30.641937 1.212269 61.283874 2.778117 91.92122 4.706726a2227.55817 2227.55817 0 0 1-0.339803 348.766135z" p-id="11885"></path></svg>