<svg t="1734856808822" class="icon" viewBox="0 0 1024 1024" version="1.1" xmlns="http://www.w3.org/2000/svg" p-id="9212" width="200" height="200"><path d="M912 325.1c0 13.8-4.8 25.5-14.4 35.1L523.9 733.9l-70.3 70.3c-9.6 9.6-21.4 14.4-35.1 14.4-13.8 0-25.5-4.8-35.1-14.4l-70.3-70.3-186.7-186.8c-9.6-9.6-14.4-21.4-14.4-35.1 0-13.8 4.8-25.5 14.4-35.1l70.3-70.3c9.6-9.6 21.4-14.4 35.1-14.4 13.8 0 25.5 4.8 35.1 14.4L418.6 559l338.5-339.1c9.6-9.6 21.4-14.4 35.1-14.4 13.8 0 25.5 4.8 35.1 14.4l70.3 70.3c9.5 9.5 14.4 21.2 14.4 34.9z" p-id="9213"></path></svg>