<svg t="1736043477129" class="icon" viewBox="0 0 1402 1024" version="1.1" xmlns="http://www.w3.org/2000/svg" p-id="4302" width="256" height="256"><path d="M344.01601 1023.72C151.29601 1008.01 0.09401 859.051 0.09401 701.397a368.608 368.608 0 0 1 326.81-374.5A368.889 368.889 0 0 1 701.40401 0.089a368.889 368.889 0 0 1 374.499 326.81 368.889 368.889 0 0 1 326.81 374.5c0 157.654-151.203 306.612-343.922 322.321H841.66501a30.016 30.016 0 0 1-31.418-29.455V776.017a30.858 30.858 0 0 1 31.418-30.858h116.979c32.54 0 42.359-20.478 22.441-46.005L734.50501 386.93a44.042 44.042 0 0 0-72.375 0L416.95201 699.434c-19.917 25.247-9.818 46.006 22.442 46.006h121.747a31.138 31.138 0 0 1 31.139 30.858v217.966a29.736 29.736 0 0 1-31.139 29.455z"  p-id="4303"></path></svg>