<svg t="1735472180602" class="icon" viewBox="0 0 1024 1024" version="1.1" xmlns="http://www.w3.org/2000/svg" p-id="21936" width="256" height="256"><path d="M608.011883 791.797005h147.661839v101.905681l267.312291-153.619012-267.312291-155.013244v103.426661H608.011883v103.299914zM228.400545 75.542023c0-7.351405 7.351405-14.70281 14.829558-14.70281h431.19792c4.436193 0 8.872385 0 14.829558 1.52098v228.907538h228.907538c1.52098 5.957173 1.52098 33.96856 1.520981 38.404753v290.887486l57.543755 35.489541V331.066716c0-39.925733-23.575195-118.129471-50.19235-146.140859L798.387919 56.40302C770.376532 28.391633 715.747989 6.21067 675.822255 6.21067H243.230103C203.304369 6.21067 170.856789 38.65825 170.856789 78.583983v144.746627h57.543756V75.542023z m518.400792 11.914345c4.436193 2.915212 7.351405 5.957173 10.393365 8.872386L885.717539 224.851591c2.915212 2.915212 5.957173 5.957173 8.872385 10.393365H746.801337V87.456368z m0 0" p-id="21937"></path><path d="M608.011883 365.035277h236.258943v67.937121H608.011883V365.035277z m311.547468 580.38074c0 7.351405-7.351405 14.829558-14.829558 14.829558H243.103354c-7.351405 0-14.829558-7.351405-14.829558-14.829558v-48.67137H170.856789v48.67137c0 39.925733 32.44758 72.373314 72.373314 72.373313h663.020671c39.925733 0 72.373314-32.44758 72.373313-72.373313v-121.044684l-57.543755 33.968561v87.076123h-1.520981zM541.468994 289.746751H1.013987V830.201758h540.455007V289.746751zM345.135784 713.466518l-73.894294-109.257086-32.44758 50.19235h32.44758v60.585716H105.834881l121.044683-177.194207-106.341874-159.449437h88.597104l63.500928 93.033297 63.500929-93.033297h88.597103l-106.341874 159.449437L439.563312 714.987498h-94.554276v-1.52098zM608.011883 499.388538h236.258943v67.937121H608.011883V499.388538z m0 0" p-id="21938"></path></svg>