<svg t="1736937374421" class="icon" viewBox="0 0 1024 1024" version="1.1" xmlns="http://www.w3.org/2000/svg" p-id="4691" width="200" height="200"><path d="M618.92 469.518c-22.9 23.461-22.9 61.503 0 84.971l116.952 128.098c22.906 23.46 60.05 23.46 82.962 0 22.903-23.464 22.903-61.503 0-84.967l-75.575-85.616 75.575-85.616c22.903-23.467 22.903-61.509 0-84.972-22.912-23.465-60.051-23.465-82.962 0L618.92 469.523v-0.005z" fill="" p-id="4692"></path><path d="M705.445 857.032L329.507 512.004l375.938-345.027c22.907-23.467 22.907-61.51 0-84.972-22.904-23.465-60.045-23.465-82.959 0L205.167 469.518c-22.906 23.456-22.906 61.498 0 84.971L622.491 942c22.909 23.458 60.05 23.458 82.954 0 22.911-23.464 22.911-61.504 0-84.968z"  p-id="4693"></path></svg>