<svg t="1735303020904" class="icon" viewBox="0 0 1024 1024" version="1.1" xmlns="http://www.w3.org/2000/svg" p-id="13590" width="200" height="200"><path d="M27.195208 324.743512L487.594262 554.544043a48.292481 48.292481 0 0 0 23.32175 6.597929 48.292481 48.292481 0 0 0 23.321749-6.654928l460.400054-229.744532c10.009892-3.299965 16.665821-13.309857 23.32075-23.32175 13.367856-23.321749 3.412963-53.241428-23.32075-66.551285L534.294761 5.068946a49.543468 49.543468 0 0 0-43.400534 0L27.195208 238.226441c-9.954893 3.355964-16.666821 13.366856-23.32175 23.321749-10.010892 23.320749 0 49.941464 23.32175 63.252321z m133.443566-43.229536L510.916012 105.008872l350.276237 176.446105-350.276237 176.561103-350.276238-176.561103z m827.343113 412.845565c-13.366856-3.355964-26.733713-3.355964-36.688606 3.299965L510.916012 917.450145 70.595742 697.659506a48.349481 48.349481 0 0 0-36.689606-3.299965 36.176611 36.176611 0 0 0-26.733713 26.620714c-9.953893 23.321749 0 53.298427 23.378749 66.552285l460.343055 229.801532c6.711928 3.298965 13.366856 6.654929 23.320749 6.654928 10.067892 0 16.72382-3.355964 23.378749-6.654928L994.637815 784.231576c23.320749-13.309857 33.331642-43.229536 20.021785-66.551285-6.654929-10.010892-16.665821-20.021785-26.734712-23.32075z" p-id="13591"></path><path d="M1015.171595 477.58487c-13.366856-20.136784-36.745605-28.782691-66.836282-17.235815L507.048053 685.429637 65.704794 460.292055c-6.654929-5.801938-20.022785-5.801938-33.389641-2.843969-13.423856 2.843969-23.434748 11.489877-26.734713 22.979753a36.517608 36.517608 0 0 0-3.411963 31.68366 35.152622 35.152622 0 0 0 23.434748 23.036752l461.310044 233.66949c6.711928 2.843969 13.423856 5.744938 23.434749 5.744939 10.067892 0 16.72382-2.843969 23.435748-5.687939l461.310045-233.783489c10.067892-5.687939 23.434748-11.489877 26.733712-22.979753 3.412963-11.546876 3.412963-23.036753-6.654928-34.583629z" p-id="13592"></path></svg>