<svg t="1734758292557" class="icon" viewBox="0 0 1024 1024" version="1.1" xmlns="http://www.w3.org/2000/svg" p-id="10039" width="200" height="200"><path d="M462.034182 924.068363C206.855931 924.068363 0 717.240874 0 462.062623 0 206.855931 206.855931 0 462.034182 0c255.17825 0 462.062623 206.855931 462.062623 462.034182 0 255.17825-206.884373 462.062623-462.062623 462.062623z m-2.844163-119.767678c190.587322 0 345.110665-154.523343 345.110666-345.110666 0-190.587322-154.523343-345.110665-345.110666-345.110665-190.587322 0-345.110665 154.523343-345.110665 345.110665 0 190.587322 154.523343 345.110665 345.110665 345.110666z m265.531002-79.352131l0.227533-0.227533a56.883248 56.883248 0 0 1 80.461354 0l201.907089 201.93553a56.883248 56.883248 0 0 1 0 80.432913l-0.227533 0.227533a56.883248 56.883248 0 0 1-80.461355 0l-201.907088-201.935531a56.883248 56.883248 0 0 1 0-80.432912z"  p-id="10040"></path></svg>