<svg t="1735131028111" class="icon" viewBox="0 0 1024 1024" version="1.1" xmlns="http://www.w3.org/2000/svg" p-id="12986" width="200" height="200"><path d="M687.897796 486.728992a52.208323 52.208323 0 1 0-52.208323 52.187618 52.208323 52.208323 0 0 0 52.208323-52.187618zM336.084304 486.728992a52.208323 52.208323 0 1 0 52.208323-52.208323 52.208323 52.208323 0 0 0-52.208323 52.208323z" p-id="12987"></path><path d="M983.848487 522.00041c37.031365-37.600759 49.558049-92.417946 32.683259-143.073374-16.336453-49.133591-57.570986-84.33254-107.574199-91.900314l-167.64017-25.363949c-14.359101-2.174053-26.916843-11.822706-33.490764-25.798759L632.863205 77.655092c-22.703322-47.901628-69.010645-77.64474-120.866979-77.644739s-98.163656 29.753464-120.866978 77.644739l-74.973761 158.208922c-6.625684 13.976053-19.142017 23.624706-33.490764 25.798759l-167.629817 25.363949c-50.003212 7.567774-91.21704 42.766723-107.574199 91.900314-16.87479 50.645076-4.348105 105.462262 32.672907 143.073374l121.312141 123.19632a50.500139 50.500139 0 0 1 13.458422 43.646697l-28.63538 173.924217c-8.872206 53.471344 12.702679 105.897072 56.183733 136.747916a130.846916 130.846916 0 0 0 139.501716 8.157874l149.937169-82.096372a41.586523 41.586523 0 0 1 39.236475-0.476221l19.525064 12.112579a44.951128 44.951128 0 1 0 47.383997-76.392071l-20.705264-12.868322c-0.693626-0.434811-1.387253-0.848916-2.070527-1.231963a131.053968 131.053968 0 0 0-126.447046 0l-149.97858 82.096372c-20.705264 11.305074-37.932044 1.915237-44.350675-2.639921-15.528948-10.97379-22.77579-29.246185-19.566475-48.885129l28.614675-173.872454c7.319311-44.371381-6.905206-89.746967-38.056275-121.363904L104.1957 458.921823c-13.396306-13.603358-17.692648-32.848901-11.481069-51.597518 2.743447-8.230342 11.708827-27.765759 35.747639-31.399533l167.629817-25.374301c43.957275-6.656742 81.785793-35.136833 101.269446-76.185018l74.984113-158.208922c11.222253-23.697175 31.440943-26.254275 39.619523-26.254275s28.39727 2.5571 39.619522 26.254275l74.963408 158.208922c19.452595 41.048186 57.322523 69.528276 101.269446 76.185018l167.650523 25.374301c24.038811 3.633774 32.993838 23.16919 35.747638 31.399533 6.211579 18.707206 1.946295 37.994159-11.460364 51.587165l-121.301789 123.196321c-31.109659 31.575528-45.334175 76.89935-37.994159 121.291436l28.63538 173.924217c3.012616 18.313806-3.364605 31.285654-9.317369 38.936249a44.966657 44.966657 0 0 0 71.257166 54.86895c23.676469-30.778375 33.128422-69.269461 26.709791-108.371352l-28.63538-173.924217a50.551902 50.551902 0 0 1 13.458421-43.646697z" p-id="12988"></path><path d="M725.156919 928.817436l-27.84858-15.25978a44.951128 44.951128 0 1 0-43.170475 78.855998l27.879637 15.25978a44.951128 44.951128 0 1 0 43.160123-78.855998z" p-id="12989"></path></svg>