<svg t="1734758887362" class="icon" viewBox="0 0 1024 1024" version="1.1" xmlns="http://www.w3.org/2000/svg" p-id="9640" width="200" height="200"><path d="M815.5 63.9H208.7c-79.8 0-144.5 64.7-144.5 144.5V815c0 79.8 64.7 144.5 144.5 144.5h606.7c79.8 0 144.5-64.7 144.5-144.5V208.3c0-79.8-64.7-144.4-144.4-144.4z m-289 736.7c0 23.9-19.4 43.3-43.3 43.3s-43.3-19.4-43.3-43.3V583.9H223.2c-23.9 0-43.3-19.4-43.3-43.3s19.4-43.3 43.3-43.3h260c23.9 0 43.3 19.4 43.3 43.3v260z m303.4-303.4h-260c-23.9 0-43.3-19.4-43.3-43.3v-260c0-23.9 19.4-43.3 43.3-43.3s43.3 19.4 43.3 43.3v216.7h216.7c23.9 0 43.3 19.4 43.3 43.3s-19.4 43.3-43.3 43.3z" p-id="9641"></path></svg>