<svg t="1736570829948" class="icon" viewBox="0 0 1024 1024" version="1.1" xmlns="http://www.w3.org/2000/svg" p-id="21049" width="256" height="256"><path d="M512 64c246.592 0 448.064 74.368 448.064 185.6v539.776h-1.216C941.696 892.16 747.392 960 512.128 960c-235.392 0-429.696-67.84-446.848-170.624H64V249.536l0.384-8.256C74.112 134.72 271.744 64 512.064 64z m0 632.32c-162.496 0-305.472-32.256-384-86.208V774.4c0 58.496 171.008 121.6 384 121.6 207.04 0 374.272-59.52 383.68-116.544l0.384-5.12 0.128-164.224C817.664 664 674.56 696.32 512 696.32z m325.312 35.2a32 32 0 0 1-16.64 42.176 549.632 549.632 0 0 1-59.84 21.696 855.68 855.68 0 0 1-103.296 23.808 32 32 0 1 1-10.88-63.04 796.608 796.608 0 0 0 95.68-22.016c19.456-5.888 37.12-12.352 52.928-19.2a32 32 0 0 1 42.048 16.64z m58.88-382.656C817.664 402.816 674.56 435.2 512 435.2c-162.56 0-305.536-32.32-384-86.208v161.856c0 58.496 170.944 121.6 384 121.6 206.976 0 374.208-59.52 383.616-116.608L896 510.72l0.128-161.92z m-58.88 129.344a31.936 31.936 0 0 1-16.64 42.176 549.952 549.952 0 0 1-59.84 21.76 880.64 880.64 0 0 1-103.296 23.808 32 32 0 0 1-10.88-63.168 796.8 796.8 0 0 0 95.68-22.016c19.456-5.888 37.12-12.288 52.928-19.2a32 32 0 0 1 42.048 16.64zM512 128c-213.056 0-384 63.168-384 121.6 0 58.496 170.944 121.6 384 121.6s384-63.104 384-121.6C896 191.168 725.12 128 512 128z" p-id="21050"></path></svg>