<svg t="1736329477754" class="icon" viewBox="0 0 1024 1024" version="1.1" xmlns="http://www.w3.org/2000/svg" p-id="6870" width="200" height="200"><path d="M847.8 65.2h-31.6v-0.8H207.9v0.8h-31.6c-61.8 0-111.9 50-111.9 111.8v670.8c0 61.8 50.1 111.8 111.9 111.8h671.5c61.8 0 111.9-50.1 111.9-111.8V177c0-61.7-50.2-111.8-111.9-111.8z m-567.9 71.1H744v143.8c0 26.5-23.1 48-51.6 48H331.5c-28.5 0-51.6-21.5-51.6-48V136.3z m608.6 698.4c0 29.6-24.1 53.7-53.8 53.7H189.2c-29.7 0-53.8-24-53.8-53.7V190c0-29.6 24.1-53.7 53.8-53.7h18.6V288c0 61.8 49.5 111.8 110.6 111.8h387.1c61.1 0 110.6-50.1 110.6-111.8V136.3h18.5c29.7 0 53.8 24 53.8 53.7v644.7z" fill="#333333" p-id="6871"></path><path d="M628 288.4c19.8 0 36-16.2 36-36v-40c0-19.8-16.2-36-36-36s-36 16.2-36 36v40c0 19.8 16.2 36 36 36z" p-id="6872"></path></svg>