<svg t="1735302820089" class="icon" viewBox="0 0 1024 1024" version="1.1" xmlns="http://www.w3.org/2000/svg" p-id="10889" width="200" height="200"><path d="M200.8 98.2h622.5c28.6 0 51.9 23.2 51.9 51.9v103.7c0 28.6-23.2 51.9-51.9 51.9H200.8c-28.6 0-51.9-23.2-51.9-51.9V150.1c0-28.6 23.2-51.9 51.9-51.9z m121 51.9c-28.6 0-51.9 23.2-51.9 51.9s23.2 51.9 51.9 51.9c28.6 0 51.9-23.2 51.9-51.9s-23.3-51.9-51.9-51.9z m-121 259.4h622.5c28.6 0 51.9 23.2 51.9 51.9v103.7c0 28.6-23.2 51.9-51.9 51.9H200.8c-28.6 0-51.9-23.2-51.9-51.9V461.3c0-28.6 23.2-51.8 51.9-51.8z m121 51.8c-28.6 0-51.9 23.2-51.9 51.9 0 28.6 23.2 51.9 51.9 51.9 28.6 0 51.9-23.2 51.9-51.9 0-28.6-23.3-51.9-51.9-51.9z m-121 259.4h622.5c28.6 0 51.9 23.2 51.9 51.9v103.7c0 28.6-23.2 51.9-51.9 51.9H200.8c-28.6 0-51.9-23.2-51.9-51.9V772.6c0-28.7 23.2-51.9 51.9-51.9z m121 51.9c-28.6 0-51.9 23.2-51.9 51.9 0 28.6 23.2 51.9 51.9 51.9 28.6 0 51.9-23.2 51.9-51.9s-23.3-51.9-51.9-51.9z" p-id="10890"></path></svg>