<?xml version="1.0" standalone="no"?><!DOCTYPE svg PUBLIC "-//W3C//DTD SVG 1.1//EN" "http://www.w3.org/Graphics/SVG/1.1/DTD/svg11.dtd"><svg t="1730119291926" class="icon" viewBox="0 0 1024 1024" version="1.1" xmlns="http://www.w3.org/2000/svg" p-id="1178" xmlns:xlink="http://www.w3.org/1999/xlink" width="200" height="200"><path d="M1000.106667 762.311111l-113.208889-190.008889c-35.84-60.302222-91.022222-100.124444-152.462222-112.64C772.551111 411.306667 796.444444 351.004444 796.444444 284.444444c0-157.013333-127.431111-284.444444-284.444444-284.444444S227.555556 127.431111 227.555556 284.444444c0 66.56 23.893333 126.862222 62.008888 175.217778-60.871111 11.946667-116.622222 51.768889-152.462222 112.64L23.893333 762.311111C7.395556 789.617778 0 820.906667 0 853.333333c0 12.515556 1.706667 170.666667 170.666667 170.666667h682.666666c168.96 0 170.666667-158.151111 170.666667-170.666667 0-32.426667-7.395556-63.715556-23.893333-91.022222zM512 113.777778c94.435556 0 170.666667 76.231111 170.666667 170.666666s-76.231111 170.666667-170.666667 170.666667-170.666667-76.231111-170.666667-170.666667 76.231111-170.666667 170.666667-170.666666zM233.244444 910.222222H170.666667c-64.853333 0-56.888889-56.888889-56.888889-56.888889l170.666666-284.444444h373.76l-116.622222 116.622222C531.911111 684.373333 522.24 682.666667 512 682.666667a284.444444 284.444444 0 0 0-278.755556 227.555555z m439.182223 0H351.573333C375.466667 844.231111 438.044444 796.444444 512 796.444444s136.533333 47.786667 160.426667 113.777778zM853.333333 910.222222h-62.577777a285.639111 285.639111 0 0 0-128-183.751111l106.951111-106.951111L910.222222 853.333333s7.964444 56.888889-56.888889 56.888889z"  p-id="1179"></path></svg>