<svg t="1735611848428" class="icon" viewBox="0 0 1026 1024" version="1.1" xmlns="http://www.w3.org/2000/svg" p-id="13319" width="200" height="200"><path d="M635.149734 318.707643h229.206209V386.641049H635.149734zM67.933406 887.028579V546.256939h317.022563V318.707643H317.022563v158.511281H67.933406V135.342676a67.933406 67.933406 0 0 1 67.381103-67.933406h441.843293V0.028168h-441.843293A135.314509 135.314509 0 0 0 0 135.342676v751.685903a135.866813 135.866813 0 0 0 135.314509 135.866813h214.846301v-67.933407H135.314509a67.933406 67.933406 0 0 1-67.381103-67.933406z" fill="#38424D" p-id="13320"></path><path d="M887.000412 0.028168h-215.398606v67.381102h125.373034v92.234787H157.406673v224.235472h67.933407V227.02516h251.850677v409.25735H157.958977v67.381102h386.612882V227.02516h319.23178V67.40927h22.644468a68.48571 68.48571 0 0 1 71.247231 67.933406v341.876248h-320.888691v317.574868H156.854369v67.933406h707.501574v-225.892384h-67.933407v157.958978h-91.682483v-248.536853h252.955285v341.876248a67.933406 67.933406 0 0 1-67.933406 67.933407h-441.843293v67.933406h441.843293a136.419117 136.419117 0 0 0 135.866813-135.866813V135.342676A135.866813 135.866813 0 0 0 887.000412 0.028168z" p-id="13321"></path></svg>