<svg t="1734743798901" class="icon" viewBox="0 0 1024 1024" version="1.1" xmlns="http://www.w3.org/2000/svg" p-id="4450" width="200" height="200"><path d="M512 791.272727a279.272727 279.272727 0 1 1 0-558.545454 279.272727 279.272727 0 0 1 0 558.545454z m0-93.090909a186.181818 186.181818 0 1 0 0-372.363636 186.181818 186.181818 0 0 0 0 372.363636zM465.454545 0h93.09091v139.636364h-93.09091V0z m0 884.363636h93.09091v139.636364h-93.09091v-139.636364zM117.061818 182.877091l65.815273-65.815273L281.6 215.784727 215.784727 281.6 117.061818 182.923636v-0.046545zM742.4 808.215273l65.815273-65.815273 98.722909 98.722909-65.815273 65.815273-98.722909-98.722909z m98.722909-691.2l65.815273 65.861818-98.722909 98.722909-65.815273-65.815273 98.722909-98.722909v-0.046545zM215.784727 742.4l65.815273 65.815273-98.722909 98.722909-65.815273-65.815273 98.722909-98.722909zM1024 465.454545v93.09091h-139.636364v-93.09091h139.636364zM139.636364 465.454545v93.09091H0v-93.09091h139.636364z" p-id="4451"></path></svg>