<svg t="1735105993435" class="icon" viewBox="0 0 1024 1024" version="1.1" xmlns="http://www.w3.org/2000/svg" p-id="5105" width="200" height="200"><path d="M1024 254.464c0 70.656-57.344 128-128 128s-128-57.344-128-128 57.344-128 128-128 128 57.344 128 128zM602.624 986.112c-50.176 50.176-130.56 50.176-180.736 0-50.176-50.176-50.176-130.56 0-180.736 50.176-50.176 130.56-50.176 180.736 0 50.176 50.176 49.664 131.072 0 180.736zM256 254.464c0 70.656-57.344 128-128 128S0 325.12 0 254.464s57.344-128 128-128 128 57.344 128 128z" fill="" p-id="5106"></path><path d="M51.2 460.8c0-254.464 206.336-460.8 460.8-460.8s460.8 206.336 460.8 460.8-206.336 460.8-460.8 460.8-460.8-206.336-460.8-460.8z m460.8 389.12c214.528 0 389.12-174.08 389.12-389.12s-174.592-389.12-389.12-389.12-389.12 174.08-389.12 389.12 174.592 389.12 389.12 389.12z"  p-id="5107"></path></svg>