<svg t="1735195119257" class="icon" viewBox="0 0 1024 1024" version="1.1" xmlns="http://www.w3.org/2000/svg" p-id="2369" width="200" height="200"><path d="M490.666667 128a277.461333 277.461333 0 0 1 256.384 171.392l8.832 0.853333a298.709333 298.709333 0 0 1 267.946666 286.805334L1024 597.333333a298.666667 298.666667 0 0 1-298.666667 298.666667H233.685333l-10.026666-0.256A234.666667 234.666667 0 0 1 0 661.333333c0-121.173333 91.306667-226.005333 207.445333-240.341333l6.272-0.64-0.042666-1.408L213.333333 405.333333A277.333333 277.333333 0 0 1 490.666667 128z m21.333333 554.666667H341.333333a42.666667 42.666667 0 0 0 0 85.333333h170.666667a42.666667 42.666667 0 0 0 0-85.333333z m170.666667-213.333334H341.333333a42.666667 42.666667 0 0 0 0 85.333334h341.333334a42.666667 42.666667 0 0 0 0-85.333334z"  p-id="2370"></path></svg>