<svg t="1735195340775" class="icon" viewBox="0 0 1024 1024" version="1.1" xmlns="http://www.w3.org/2000/svg" p-id="6375" width="200" height="200"><path d="M577.319593 510.295274l-136.078739 0 0-510.295274 136.078739 0z" fill="#2c2c2c" p-id="6376"></path><path d="M491.58998699 357.206692l-115.66692799 1e-8 0-136.07874001L491.589987 221.127952zM491.589987 180.30433l-149.686613 0 0-136.07874L491.589987 44.22559zM512.001798 438.853935A290.528109 290.528109 0 0 1 804.571088 731.423225 290.528109 290.528109 0 0 1 512.001798 1023.992516a290.528109 290.528109 0 0 1-292.56929-292.569291 290.528109 290.528109 0 0 1 292.56929-292.56929z m0 449.059841A153.768976 153.768976 0 0 0 668.492349 731.423225a153.768976 153.768976 0 0 0-156.490551-156.49055 153.768976 153.768976 0 0 0-156.49055 156.49055A153.768976 153.768976 0 0 0 512.001798 887.913776z" p-id="6377"></path></svg>