<?xml version="1.0" standalone="no"?>
<!DOCTYPE svg PUBLIC "-//W3C//DTD SVG 1.1//EN" "http://www.w3.org/Graphics/SVG/1.1/DTD/svg11.dtd">
<svg t="1730119168793" class="icon" viewBox="0 0 1025 1024" version="1.1" xmlns="http://www.w3.org/2000/svg" p-id="895" xmlns:xlink="http://www.w3.org/1999/xlink" width="200.1953125" height="200"><path d="M989.662673 431.676441L906.22083 348.234598V229.599597c0-62.439474-50.519211-112.958685-112.958685-112.958686h-118.635001L590.617669 33.199069a112.391054 112.391054 0 0 0-159.504475 0L348.238982 116.640911H229.603981c-62.439474 0-112.958685 50.519211-112.958685 112.958686V348.234598L33.203453 431.676441a112.391054 112.391054 0 0 0 0 159.504475l84.009474 84.009475v118.635001c0 62.439474 50.519211 112.958685 112.958686 112.958686H348.238982l84.009475 84.009474c44.275264 44.275264 115.229212 44.275264 159.504475 0l84.009475-84.009474h118.635001c62.439474 0 112.958685-50.519211 112.958686-112.958686v-118.635001l84.009474-84.009475c42.572369-43.707632 42.572369-115.229212-1.702895-159.504475zM512.852142 683.137233c-94.226843 0-170.289475-76.062632-170.289475-170.289475s76.062632-170.289475 170.289475-170.289476 170.289475 76.062632 170.289475 170.289476-76.062632 170.289475-170.289475 170.289475z"  p-id="896"></path></svg>