<svg t="1736859249920" class="icon" viewBox="0 0 1024 1024" version="1.1" xmlns="http://www.w3.org/2000/svg" p-id="12176" width="256" height="256"><path d="M166.4 345.6C166.4 154.7264 321.1264 0 512 0s345.6 154.7264 345.6 345.6v121.1392c53.248 27.7632 89.6 83.456 89.6 147.6608v25.6c0 106.0352-85.9648 192-192 192H268.8C162.7648 832 76.8 746.0352 76.8 640v-25.6c0-64.192 36.352-119.8976 89.6-147.6608V345.6z m614.4 0c0-148.4544-120.3456-268.8-268.8-268.8s-268.8 120.3456-268.8 268.8v166.4c0 7.0656-5.76 12.6976-12.7616 13.696A89.6128 89.6128 0 0 0 153.6 614.4v25.6a115.2 115.2 0 0 0 115.2 115.2h486.4a115.2 115.2 0 0 0 115.2-115.2v-25.6a89.6256 89.6256 0 0 0-71.36-87.744c-9.9328-2.048-18.24-10.0736-18.24-20.224V345.6zM417.2416 889.5744a38.4 38.4 0 1 0-66.4832 38.4512A186.112 186.112 0 0 0 512 1021.0816a186.112 186.112 0 0 0 161.2416-93.056 38.4 38.4 0 1 0-66.4832-38.4512A109.312 109.312 0 0 1 512 944.2816a109.312 109.312 0 0 1-94.7584-54.7072z" p-id="12177"></path></svg>