<svg t="1735048057984" class="icon" viewBox="0 0 1024 1024" version="1.1" xmlns="http://www.w3.org/2000/svg" p-id="16252" width="200" height="200"><path d="M903.469734 243.714078c231.034748 323.93091-11.274822 771.12513-396.336405 771.125129-310.464986 0-526.569404-280.207945-479.444173-581.600222 14.91932-95.472635 141.177503-75.015 125.949887 18.156426-36.764287 225.000957 119.99317 436.34881 353.505297 436.34881 271.399491 0 450.607495-300.929834 311.202693-541.752977a4.998798 4.998798 0 0 1 0.418402-5.703474l76.5785-96.760872a5.086882 5.086882 0 0 1 8.125799 0.18718zM507.9371 0.072229L980.059245 69.471839c3.853699 0.57255 5.670443 5.130925 3.248118 8.180852L687.145105 451.835834a5.108904 5.108904 0 0 1-8.72037-1.277226C619.78245 302.68668 561.118144 154.825762 502.464848 6.975855a5.097893 5.097893 0 0 1 5.472252-6.903626z m-98.918942 401.962806h174.143143c2.796684 0 5.075872 2.290198 5.075872 5.097893v168.593817a5.097893 5.097893 0 0 1-5.075872 5.097893H409.018158a5.108904 5.108904 0 0 1-5.086883-5.097893V407.132928c0-2.796684 2.279188-5.097893 5.086883-5.097893z"  p-id="16253"></path></svg>